<svg xmlns="http://www.w3.org/2000/svg" xmlns:xlink="http://www.w3.org/1999/xlink" width="59.367" height="60.205" viewBox="0 0 59.367 60.205">
  <defs>
    <linearGradient id="linear-gradient" x1="0.146" y1="0.852" x2="0.864" y2="0.145" gradientUnits="objectBoundingBox">
      <stop offset="0" stop-color="#c9463d"/>
      <stop offset="0.27" stop-color="#d24a3c"/>
      <stop offset="0.71" stop-color="#ec5538"/>
      <stop offset="0.99" stop-color="#ff5e35"/>
    </linearGradient>
  </defs>
  <g id="g" transform="translate(-275.44 -317.036)">
    <path id="Path_15" data-name="Path 15" d="M425.211,557.024a11.036,11.036,0,1,0,21.468,4.535C436.746,565.546,437.784,552.477,425.211,557.024Z" transform="translate(-129.106 -206.812)" fill="#330136"/>
    <path id="Path_16" data-name="Path 16" d="M334.716,344.617q-.077-1.141-.221-2.282a.269.269,0,0,0-.269-.24H301.1a.269.269,0,0,0-.245.395h0a18.872,18.872,0,0,0,16.929,10.535h3.877a.269.269,0,0,1,.269.344,18.786,18.786,0,0,1-2.23,5.164,19.606,19.606,0,0,1-3.658,4.33,15.343,15.343,0,0,1-4.792,2.859,16.759,16.759,0,0,1-12.78-.547,18.419,18.419,0,0,1-5.715-4.2,20.633,20.633,0,0,1,0-27.663,18.444,18.444,0,0,1,5.718-4.2,16.279,16.279,0,0,1,7.062-1.555,16.6,16.6,0,0,1,9.3,2.732,18.935,18.935,0,0,1,1.653,1.213,11.163,11.163,0,0,0,13.113.714l1.5-.965a31.012,31.012,0,0,0-10.721-10.3,28.815,28.815,0,0,0-14.84-3.907,29.545,29.545,0,0,0-11.729,2.354,29.875,29.875,0,0,0-16.023,16.02,30.4,30.4,0,0,0,0,23.458,29.875,29.875,0,0,0,16.017,16.017,29.5,29.5,0,0,0,11.729,2.355,28.768,28.768,0,0,0,20.9-8.787,29.881,29.881,0,0,0,6.138-9.586,30.977,30.977,0,0,0,2.228-11.729Q334.8,345.878,334.716,344.617Zm-23.546-21.96h7.545a1.482,1.482,0,0,1,0,2.964H311.17a1.482,1.482,0,1,1,0-2.964Zm-13.2.269a1.475,1.475,0,1,1-1.049.431,1.482,1.482,0,0,1,1.049-.431Zm-6.2,0a1.475,1.475,0,1,1-1.049.431,1.482,1.482,0,0,1,1.049-.431Z" transform="translate(0 0)" fill="url(#linear-gradient)"/>
  </g>
</svg>
